<svg width="28" height="34" viewBox="0 0 28 34" fill="none" xmlns="http://www.w3.org/2000/svg">
<path d="M14 0.333313C6.99996 0.333313 0.666626 5.69998 0.666626 14C0.666626 19.3 4.74996 25.5333 12.9 32.7166C13.5333 33.2666 14.4833 33.2666 15.1166 32.7166C23.25 25.5333 27.3333 19.3 27.3333 14C27.3333 5.69998 21 0.333313 14 0.333313ZM14 17C12.1666 17 10.6666 15.5 10.6666 13.6666C10.6666 11.8333 12.1666 10.3333 14 10.3333C15.8333 10.3333 17.3333 11.8333 17.3333 13.6666C17.3333 15.5 15.8333 17 14 17Z" fill="white"/>
</svg>
