<svg width="30" height="30" viewBox="0 0 30 30" fill="none" xmlns="http://www.w3.org/2000/svg">
<path d="M27.0501 20.4333L22.8167 19.95C21.8001 19.8333 20.8001 20.1833 20.0834 20.9L17.0167 23.9667C12.3001 21.5667 8.4334 17.7167 6.0334 12.9833L9.11673 9.89999C9.8334 9.18333 10.1834 8.18333 10.0667 7.16666L9.5834 2.96666C9.3834 1.28333 7.96673 0.0166626 6.26674 0.0166626H3.3834C1.50007 0.0166626 -0.0665989 1.58333 0.0500678 3.46666C0.933401 17.7 12.3167 29.0667 26.5334 29.95C28.4167 30.0667 29.9834 28.5 29.9834 26.6167V23.7333C30.0001 22.05 28.7334 20.6333 27.0501 20.4333Z" fill="white"/>
</svg>
