<svg width="34" height="28" viewBox="0 0 34 28" fill="none" xmlns="http://www.w3.org/2000/svg">
<path d="M30.3334 0.666687H3.66671C1.83337 0.666687 0.333374 2.16669 0.333374 4.00002V24C0.333374 25.8334 1.83337 27.3334 3.66671 27.3334H30.3334C32.1667 27.3334 33.6667 25.8334 33.6667 24V4.00002C33.6667 2.16669 32.1667 0.666687 30.3334 0.666687ZM29.6667 7.75002L18.7667 14.5667C17.6834 15.25 16.3167 15.25 15.2334 14.5667L4.33337 7.75002C3.91671 7.48335 3.66671 7.03335 3.66671 6.55002C3.66671 5.43335 4.88337 4.76669 5.83337 5.35002L17 12.3334L28.1667 5.35002C29.1167 4.76669 30.3334 5.43335 30.3334 6.55002C30.3334 7.03335 30.0834 7.48335 29.6667 7.75002Z" fill="white"/>
</svg>
