<svg width="109" height="127" viewBox="0 0 109 127" fill="none" xmlns="http://www.w3.org/2000/svg">
<path d="M101.866 0.982896C103.875 0.87847 106.302 7.56178 108.024 16.8558C104.554 16.8558 101.057 16.8558 97.5869 16.8558C97.5869 14.8717 97.7696 11.8955 98.6306 8.4233C99.3873 5.2905 100.431 1.06122 101.866 0.982896Z" fill="#CC102F"/>
<path d="M6.67851 0.982896C4.66933 0.87847 2.24266 7.56178 0.520508 16.8558C3.99091 16.8558 7.4874 16.8558 10.9578 16.8558C10.9578 14.8717 10.7751 11.8955 9.91407 8.4233C9.15736 5.2905 8.11363 1.06122 6.67851 0.982896Z" fill="#CC102F"/>
<path d="M101.788 0.98291C101.632 0.98291 101.449 0.98291 101.266 0.98291C101.084 0.98291 100.927 0.98291 100.771 0.98291H55.0032H53.5159H7.77447C7.61791 0.98291 7.43526 0.98291 7.2787 0.98291C7.09605 0.98291 6.9134 0.98291 6.75684 0.98291C7.46135 2.36657 7.95712 3.51526 8.27024 4.29846C10.5143 9.9114 10.9839 14.715 10.9839 16.9863C10.9839 17.9784 10.9839 18.9443 10.9839 19.9364V84.2894V123.188C10.9839 125.982 14.5848 127.157 16.2026 124.859C25.3091 111.936 39.269 100.502 53.9856 100.293C69.1457 100.084 83.1317 111.571 92.3687 124.807C93.9864 127.104 97.5873 125.956 97.5873 123.136V93.3484V84.3155V19.9364C97.5873 18.9443 97.5873 17.9784 97.5873 16.9863C97.5873 14.6889 98.057 9.88529 100.301 4.27235C100.588 3.51526 101.084 2.34046 101.788 0.98291Z" fill="#F31237"/>
</svg>
